<svg xmlns="http://www.w3.org/2000/svg" viewBox="0 0 200 48" fill="none">
  <rect x="0" y="4" width="40" height="40" rx="10" fill="#C4A35A"/>
  <path d="M10 28V16h8.2c3.2 0 5.2 1.7 5.2 4.3 0 1.8-1 3.2-2.6 3.8L23 28h-3.2l-2.1-3.6H13.2V28H10zm3.2-6.2h4.8c1.4 0 2.2-.7 2.2-1.8s-.8-1.8-2.2-1.8h-4.8v3.6zM26 28V16h3.1v12H26zM32.5 28V16H42v2.7h-6.4v2.2H41v2.6h-5.4V28h-3.1z" fill="#111"/>
  <text x="52" y="22" font-family="system-ui,sans-serif" font-size="15" font-weight="700" fill="currentColor" letter-spacing="-0.02em">PTC Creative</text>
  <text x="52" y="36" font-family="system-ui,sans-serif" font-size="8.5" font-weight="500" fill="#C4A35A" letter-spacing="0.14em">CNC · BRAND · MAKE</text>
</svg>
